<?xml version="1.0" encoding="UTF-8"?>
<svg xmlns="http://www.w3.org/2000/svg" version="1.1" viewBox="0 0 306.3 494.5">
  <defs>
    <style>
      .cls-1 {
        fill: #fff;
      }

      .cls-2 {
        fill: #fa620aec;
      }
    </style>
  </defs>
  <!-- Generator: Adobe Illustrator 28.6.0, SVG Export Plug-In . SVG Version: 1.2.0 Build 709)  -->
  <g>
    <g id="Layer_1">
      <g id="Layer_6">
        <path d="M303.1,240c0,138.8-9.5,250.5-146.6,250.5S4.5,381.9,4.5,243.1,33.8,3.5,152.1,3.5s151,97.8,151,236.5h0Z"/>
      </g>
      <g id="Layer_5">
        <path class="cls-2" d="M296.5,236.9c0,131.1-33.7,237.4-140.1,237.4S12.6,371.1,12.6,240,57.2,14.2,152.3,14.2s144.2,91.6,144.2,222.7h0Z"/>
      </g>
      <g id="Layer_2">
        <path d="M86.4,64.8c-2.1-3.5,0-8.1,4.2-8.5,1.1-.1,2.3,0,3.4.7,4.4,2.6,15.9,6.8,28.5,4.7s17.6-7.3,25.8-7.9c12.6-.8,20.2,4,25.2,6.9s11.1,11.9,12.7,16.7,3.8,17.3,3.8,27.8,6.1,34.7,8.2,40.4c3.3,8.9,12.1,21.5,27.4,41.9s33.5,61.4,31.3,95.4c-2.2,34.1-11,33-12.6,26.8-1.6-6.3-10.4-45.6-19.2-56.1-8.8-10.5-12.1-22.6-12.6-19.4s3.3,23.6,6,28.8c2.8,5.2,9.3,35.7,8.8,50.4-.5,14.6.5,37.2-9.9,56.6s-7.1,23.6-4.9,26.2,15.4,7.3,15.9,11.5-1.1,4.2-7.1,4.2-12.6-1.6-12.6,0-1.6,11.5-3.3,11.5-8.2-.5-9.3-4.7-1.6-8.9-6.6-8.4-13.7,2.1-15.4.5-1.1-7.1,6.3-10c6.3-2.4,9-3.1,10.7-5.8s-1.6-11-15.4-12.6-31.8.8-35.1,2.4-7.9,3.9-9.9,7.1c-3.7,6.1.1,6.1,3.8,10s4.9,10-.6,10-12.1-4.7-15.9-1-12.6,10.9-14.3,12.6c-1.9,2-4.4,4.9-6.6,0s4.4-13.2,1.6-13.2-12.6,2.1-14.8,1-1.1-4.7,6-7.9,20.9-11,21.4-11-4.7-5-8.8-9.4-17-27.3-16.5-31.5-4.8-15.2-3.2-48.2,3.1-56.7.8-56.1-3.7,10.4-9.2,25.6c-5.9,16.5-4.1,27-3.8,35.7.6,23.1-6.6,12.6-9.9,6.3s-10.4-28.3-7.1-54c3.3-25.7,23.6-54.4,26.3-59.8,6-12.1,17.2-24.3,29.6-40.4,2.9-3.8,12.3-19.9,13.7-39.3.6-7.3-1.1-28.3-19.8-40.4-10.1-6.5-15-12.4-17.5-16.3h0Z"/>
      </g>
      <g id="Layer_3">
        <path class="cls-1" d="M160.7,66c-4.8-.8-9.7.7-13.4,3.8-3,2.4-6.2,8.1-6.2,12.3,0,7.9,2.4,15.8,11.1,16.3s15.6-10,16.4-16,1.6-11.5-6-16c-.6-.3-1.2-.3-1.9-.5h0Z"/>
        <path class="cls-1" d="M134.6,134.6s-4.4-7.3,3.3-11,17.6-5.8,25.2-15.2c7.7-9.4,9.3-25.7,11.5-23.6s5.8,13,5.8,18.9-.3,15.2-6.3,21.5-16.6,5.7-25,6.3c-8,.5-8.5,1.6-14.5,3.2h0Z"/>
        <path class="cls-1" d="M160.4,143s-12.1-2.6-23.6,5.8c-6.2,4.5-14.4,19.5-18.7,30.9-3.4,9-9.3,27.8-13.2,54.5-3.8,26.7-8.8,89.1-2.7,109.6s9.8,26.2,27.7,26.2,21.7-6.8,30.5-6.8,22.5,3.1,30.7,2.6,10.4-1,17.6-13.1,5.5-49.3,0-60.8c-5.5-11.5-11.5-19.9-11-44.1s-2.2-61.4-6.6-75-12.6-26.8-30.7-29.9h0Z"/>
      </g>
      <g id="Layer_4">
        <ellipse cx="157.1" cy="83.2" rx="8.3" ry="5.8" transform="translate(5.6 176.3) rotate(-59.5)"/>
      </g>
    </g>
  </g>
</svg>